<svg width="24" height="25" viewBox="0 0 24 25" fill="none" xmlns="http://www.w3.org/2000/svg">
<path fill-rule="evenodd" clip-rule="evenodd" d="M14.0968 1.74024C12.8858 0.718096 11.1142 0.718098 9.90323 1.74024L8.80035 2.67112C8.28563 3.10556 7.64869 3.36941 6.97753 3.42617L5.53944 3.54778C3.96037 3.68132 2.70769 4.934 2.57415 6.51307L2.45253 7.95116C2.39578 8.62232 2.13192 9.25927 1.69749 9.774L0.766607 10.8769C-0.255536 12.0879 -0.255535 13.8594 0.766607 15.0704L1.69749 16.1733C2.13192 16.688 2.39578 17.325 2.45253 17.9961L2.57415 19.4343C2.70769 21.0133 3.96037 22.266 5.53944 22.3995L6.97753 22.5211C7.64869 22.578 8.28563 22.8418 8.80036 23.2762L9.90323 24.2071C11.1142 25.2291 12.8858 25.2291 14.0968 24.2071L15.1997 23.2762C15.7144 22.8418 16.3514 22.578 17.0225 22.5211L18.4606 22.3995C20.0397 22.266 21.2924 21.0133 21.4259 19.4343L21.5474 17.9961C21.6043 17.325 21.8681 16.688 22.3026 16.1733L23.2335 15.0704C24.2555 13.8594 24.2555 12.0879 23.2335 10.8769L22.3026 9.77398C21.8681 9.25927 21.6043 8.62232 21.5474 7.95116L21.4259 6.51307C21.2924 4.934 20.0397 3.68132 18.4606 3.54778L17.0225 3.42617C16.3514 3.36941 15.7144 3.10556 15.1997 2.67112L14.0968 1.74024ZM17.9113 10.7573C18.4826 10.186 18.4826 9.2598 17.9113 8.68852C17.3401 8.11723 16.4138 8.11723 15.8425 8.68852L10.3753 14.1557L8.15892 11.9393C7.58764 11.368 6.66141 11.368 6.09013 11.9393C5.51883 12.5106 5.51883 13.4368 6.09013 14.0081L9.34092 17.2588C9.9122 17.8302 10.8384 17.8302 11.4097 17.2588L17.9113 10.7573Z" fill="currentColor"/>
</svg>
