<svg width="124" height="22" viewBox="0 0 124 22" fill="none" xmlns="http://www.w3.org/2000/svg">
<path d="M21 14.5014H14.0014V21.5H21V14.5014Z" fill="#008574"/>
<path d="M6.99859 0.5C3.13319 0.5 0 3.6332 0 7.49861V14.4972C0 18.3626 3.13319 21.4958 6.99859 21.4958L13.9972 14.4972H6.99859V7.49861H13.9972V14.4972L20.9958 7.49861C20.9958 3.6332 17.8626 0.5 13.9972 0.5H6.99859Z" fill="#008574"/>
<path d="M34.3017 21.4747C33.1778 21.4747 32.1208 21.2559 31.1222 20.8182C30.1279 20.3805 29.2463 19.7745 28.4775 19.0044C27.7088 18.2342 27.1072 17.342 26.6643 16.3278C26.2214 15.3178 26 14.2446 26 13.1168C26 11.9889 26.2214 10.92 26.6643 9.91418C27.1072 8.91257 27.713 8.0246 28.4775 7.25025C29.2421 6.48011 30.1237 5.8741 31.1222 5.43642C32.1166 4.99874 33.1778 4.77991 34.3017 4.77991C35.4255 4.77991 36.5076 4.99874 37.502 5.43642C38.4964 5.8741 39.3779 6.48011 40.1467 7.25025C40.9112 8.0246 41.5129 8.90836 41.9474 9.91418C42.3819 10.9158 42.5992 11.9847 42.5992 13.1168C42.5992 14.2488 42.3777 15.343 41.9349 16.3531C41.492 17.3631 40.8862 18.251 40.1216 19.017C39.3529 19.7829 38.4713 20.3805 37.4769 20.8224C36.4826 21.2601 35.4214 21.4789 34.2975 21.4789L34.3017 21.4747ZM34.3017 18.5372C35.0286 18.5372 35.7138 18.3941 36.3531 18.108C36.9923 17.8218 37.5605 17.4262 38.0619 16.9254C38.559 16.4246 38.9559 15.8438 39.2484 15.1831C39.5409 14.5224 39.6871 13.8322 39.6871 13.1168C39.6871 12.4013 39.5409 11.6943 39.2484 11.0504C38.9559 10.4066 38.559 9.83422 38.0619 9.32921C37.5647 8.8284 36.9923 8.4286 36.3447 8.13402C35.6971 7.83943 35.0161 7.69213 34.3058 7.69213C33.5956 7.69213 32.9146 7.83943 32.267 8.13402C31.6194 8.4286 31.047 8.8284 30.5498 9.32921C30.0526 9.83001 29.6599 10.4024 29.3758 11.0504C29.0917 11.6943 28.9497 12.3845 28.9497 13.1168C28.9497 13.849 29.0917 14.5224 29.3758 15.1831C29.6599 15.8438 30.0526 16.4246 30.5498 16.9254C31.047 17.4262 31.6194 17.8218 32.267 18.108C32.9146 18.3941 33.5956 18.5372 34.3058 18.5372H34.3017ZM39.7331 21.2853L33.4243 14.2152H36.9087L43.1924 21.2853H39.7289H39.7331Z" fill="#021D54"/>
<path d="M48.8369 21.4999C47.9512 21.4999 47.2242 21.3063 46.656 20.915C46.0878 20.5236 45.6616 19.9849 45.3859 19.2905C45.1101 18.5961 44.9723 17.8049 44.9723 16.9127V10.7264H47.9136V16.9127C47.9136 17.3252 47.9679 17.6913 48.0807 18.0111C48.1893 18.331 48.3731 18.5751 48.628 18.7518C48.8787 18.9286 49.2129 19.0127 49.6224 19.0127C50.1906 19.0127 50.6627 18.8655 51.0345 18.5709C51.4064 18.2763 51.6821 17.8765 51.8659 17.363C52.0456 16.8538 52.1375 16.3025 52.1375 15.7134V10.7222H55.0788V21.2558H52.1375V19.7997C51.774 20.3258 51.3144 20.7382 50.763 21.0412C50.2073 21.3442 49.568 21.4957 48.8411 21.4957L48.8369 21.4999Z" fill="#021D54"/>
<path d="M62.4028 21.5C61.421 21.5 60.5394 21.2475 59.7581 20.7341C58.9769 20.2249 58.3585 19.5473 57.9073 18.7056C57.4561 17.8597 57.2305 16.9633 57.2305 16.008C57.2305 15.0527 57.4561 14.1353 57.9073 13.3104C58.3585 12.4814 58.9727 11.8038 59.7581 11.282C60.5394 10.7559 61.421 10.495 62.4028 10.495C63.1298 10.495 63.815 10.6339 64.4542 10.9116C65.0934 11.1894 65.6449 11.6144 66.1045 12.191V10.7559H69.0208V21.2643H66.1045V19.8293C65.8371 20.1954 65.5029 20.5026 65.1102 20.7509C64.7132 20.9992 64.2829 21.1844 63.8192 21.3106C63.3512 21.4369 62.8833 21.5 62.407 21.5H62.4028ZM63.2092 19.0381C63.7607 19.0381 64.2578 18.895 64.6924 18.6088C65.1269 18.3226 65.4695 17.9481 65.7243 17.4852C65.975 17.0223 66.1045 16.5299 66.1045 16.0038C66.1045 15.4778 65.9792 14.9643 65.7243 14.5098C65.4695 14.0553 65.1269 13.685 64.6924 13.3988C64.2578 13.1126 63.7648 12.9695 63.2092 12.9695C62.6535 12.9695 62.1605 13.1126 61.726 13.3988C61.2915 13.685 60.9489 14.0553 60.694 14.5098C60.4392 14.9643 60.3138 15.4609 60.3138 16.0038C60.3138 16.5467 60.4392 17.0223 60.694 17.4852C60.9447 17.9481 61.2915 18.3226 61.726 18.6088C62.1605 18.895 62.6535 19.0381 63.2092 19.0381Z" fill="#021D54"/>
<path d="M72.0038 21.26V10.7263H74.9451V12.2077C75.2919 11.6985 75.7431 11.2861 76.2988 10.9789C76.8503 10.6674 77.4854 10.5117 78.1956 10.5117C79.0981 10.5117 79.8334 10.7011 80.4016 11.0714C80.9698 11.446 81.396 11.9762 81.6801 12.658C81.9642 13.344 82.1062 14.1562 82.1062 15.0947V21.2558H79.1649V15.0947C79.1649 14.6823 79.1106 14.3161 78.9978 13.9963C78.885 13.6764 78.7053 13.4324 78.4505 13.2556C78.1956 13.0789 77.8656 12.9947 77.4561 12.9947C76.9172 12.9947 76.4618 13.142 76.0816 13.4366C75.7014 13.7312 75.4173 14.131 75.2292 14.6318C75.0412 15.1326 74.9451 15.6881 74.9451 16.2899V21.26H72.0038Z" fill="#021D54"/>
<path d="M86.397 21.2601V13.0916H83.9529V10.7264H86.397V6.69055H89.3132V10.7264H91.7574V13.0916H89.3132V21.2601H86.397Z" fill="#021D54"/>
<path d="M97.711 21.4999C96.8253 21.4999 96.0983 21.3063 95.5301 20.915C94.9619 20.5236 94.5357 19.9849 94.26 19.2905C93.9842 18.5961 93.8464 17.8049 93.8464 16.9127V10.7264H96.7877V16.9127C96.7877 17.3252 96.842 17.6913 96.9548 18.0111C97.0634 18.331 97.2473 18.5751 97.5021 18.7518C97.7528 18.9286 98.087 19.0127 98.4965 19.0127C99.0647 19.0127 99.5368 18.8655 99.9086 18.5709C100.28 18.2763 100.556 17.8765 100.74 17.363C100.92 16.8538 101.012 16.3025 101.012 15.7134V10.7222H103.953V21.2558H101.012V19.7997C100.648 20.3258 100.189 20.7382 99.6371 21.0412C99.0814 21.3442 98.4422 21.4957 97.7152 21.4957L97.711 21.4999Z" fill="#021D54"/>
<path d="M106.698 21.2349V10.7265H109.639V12.1363C109.986 11.6439 110.404 11.2441 110.897 10.9411C111.386 10.6381 111.95 10.4866 112.58 10.4866C113.291 10.4866 113.93 10.6381 114.49 10.9411C115.05 11.2441 115.505 11.7154 115.852 12.3509C116.295 11.7154 116.804 11.2441 117.381 10.9411C117.958 10.6381 118.643 10.4866 119.432 10.4866C120.318 10.4866 121.049 10.6886 121.626 11.0968C122.202 11.505 122.637 12.0605 122.929 12.7675C123.222 13.4745 123.368 14.2784 123.368 15.1663V21.2349H120.452V15.1663C120.452 14.7665 120.397 14.4004 120.285 14.0679C120.172 13.7355 119.996 13.4661 119.75 13.2683C119.503 13.0705 119.161 12.9695 118.718 12.9695C118.275 12.9695 117.891 13.0916 117.569 13.3399C117.243 13.5882 116.997 13.8996 116.821 14.2826C116.646 14.6655 116.562 15.0611 116.562 15.4778V21.2349H113.646V15.1663C113.646 14.7665 113.592 14.4004 113.479 14.0679C113.366 13.7355 113.19 13.4661 112.944 13.2683C112.697 13.0705 112.355 12.9695 111.912 12.9695C111.469 12.9695 111.056 13.1252 110.713 13.4367C110.374 13.7481 110.111 14.1311 109.932 14.5814C109.748 15.0359 109.652 15.4946 109.635 15.9533V21.2307H106.694L106.698 21.2349Z" fill="#021D54"/>
</svg>
