<svg width="25" height="25" viewBox="0 0 25 25" fill="none" xmlns="http://www.w3.org/2000/svg">
<path d="M15.297 15.3039C16.4072 14.2196 17.6731 13.8513 19.0343 14.2447C20.014 14.5278 21.0268 15.2059 22.2179 16.3545C22.8502 16.9642 23.2161 17.784 23.2478 18.6618C23.2795 19.5396 22.9735 20.3836 22.3868 21.0373C21.1027 22.4651 19.0613 23.0308 17.2324 23.0308C16.9213 23.0308 16.605 23.015 16.2838 22.9835C16.226 22.9854 16.1672 22.9823 16.108 22.9738C15.9791 22.9553 15.8502 22.9351 15.7213 22.9132C15.0159 22.8062 14.2886 22.6265 13.5428 22.3754C10.6703 21.4402 7.85976 19.6058 5.34129 16.7285C5.29613 16.6769 5.25722 16.6219 5.22451 16.5646C2.73283 13.6092 1.26548 10.1692 1.25012 7.09665C1.23974 5.01246 1.90306 3.22976 3.18018 1.95263C3.81441 1.3209 4.74156 1.00125 5.61889 1.0329C6.49675 1.06455 7.31644 1.43047 7.92609 2.06269C9.0747 3.25383 9.75278 4.26664 10.0359 5.24625C10.4292 6.6074 10.066 7.8684 8.98155 8.97876L8.98072 8.97962L7.91726 10.0511C9.38465 12.6101 11.6697 14.8956 14.2297 16.3633L15.297 15.3039ZM13.5097 20.2428C14.4424 20.5991 15.377 20.8415 16.3026 20.9809C16.6095 21.0181 16.9073 21.0376 17.194 21.0391C18.7429 21.0492 20.0189 20.5821 20.9018 19.7102C21.3993 19.1525 21.3725 18.3059 20.8355 17.7881C19.7014 16.6944 18.8913 16.2132 18.2605 16.1076C17.6489 16.0052 17.1768 16.2527 16.6966 16.7209L15.1136 18.2921C14.822 18.5816 14.3824 18.6622 14.007 18.495C10.6458 16.9988 7.27576 13.6215 5.78561 10.2737C5.61847 9.89834 5.69909 9.4588 5.98856 9.16714L7.55923 7.58468C8.02738 7.10447 8.27536 6.63196 8.17298 6.0203C8.06741 5.38954 7.5862 4.57937 6.49253 3.44516C5.97392 2.90739 5.13395 2.87611 4.577 3.37305C3.70507 4.256 3.23398 5.53864 3.24166 7.08674C3.25663 10.0847 4.96146 13.5905 7.82586 16.4549C9.45006 18.0788 11.3694 19.4009 13.5097 20.2428Z" fill="#505A8A"/>
<path d="M15.25 4.03076C14.6977 4.03076 14.25 4.47848 14.25 5.03076C14.25 5.58305 14.6977 6.03076 15.25 6.03076H16.8358L13.5429 9.32366C13.1524 9.71418 13.1524 10.3473 13.5429 10.7379C13.9334 11.1284 14.5666 11.1284 14.9571 10.7379L18.25 7.44497V9.03076C18.25 9.58305 18.6977 10.0308 19.25 10.0308C19.8023 10.0308 20.25 9.58305 20.25 9.03076V5.03076C20.25 4.47848 19.8023 4.03076 19.25 4.03076H15.25Z" fill="#505A8A"/>
</svg>
