<svg width="25" height="25" viewBox="0 0 25 25" fill="none" xmlns="http://www.w3.org/2000/svg">
<path d="M15.25 2.03077C16.9068 2.03077 18.25 3.37391 18.25 5.03077V6.03077H19.25C20.9068 6.03077 22.25 7.37392 22.25 9.03077L22.25 19.0308C22.25 20.6876 20.9068 22.0308 19.25 22.0308L9.24999 22.0308C7.59314 22.0308 6.24999 20.6876 6.24999 19.0308V18.0308H5.24999C3.59314 18.0308 2.24999 16.6876 2.24999 15.0308L2.24999 5.03076C2.24999 3.37391 3.59314 2.03076 5.24999 2.03076L15.25 2.03077ZM20.25 9.03077C20.25 8.47849 19.8023 8.03077 19.25 8.03077H18.25V15.0308C18.25 16.6876 16.9068 18.0308 15.25 18.0308H11.2528C10.7005 18.0308 10.25 17.5831 10.25 17.0308C10.25 16.4785 10.6977 16.0308 11.25 16.0308H15.25C15.8023 16.0308 16.25 15.583 16.25 15.0308L16.25 5.03077C16.25 4.47848 15.8023 4.03077 15.25 4.03077L5.23632 4.03076C4.68404 4.03076 4.23632 4.47848 4.23632 5.03076L4.23632 15.0308C4.23632 15.583 4.68404 16.0308 5.23632 16.0308L7.24999 16.0308C7.80228 16.0308 8.24999 16.4785 8.24999 17.0308V19.0308C8.24999 19.583 8.69771 20.0308 9.24999 20.0308L19.25 20.0308C19.8023 20.0308 20.25 19.583 20.25 19.0308L20.25 9.03077Z" fill="#505A8A"/>
</svg>
