<svg width="24" height="24" viewBox="0 0 24 24" fill="none" xmlns="http://www.w3.org/2000/svg">
<path d="M12 6C8.68629 6 6 8.68629 6 12C6 15.3137 8.68629 18 12 18C15.3137 18 18 15.3137 18 12C18 8.68629 15.3137 6 12 6ZM8 12C8 9.79086 9.79086 8 12 8C14.2091 8 16 9.79086 16 12C16 14.2091 14.2091 16 12 16C9.79086 16 8 14.2091 8 12Z" fill="currentColor"/>
<path d="M18 7C18.5523 7 19 6.55228 19 6C19 5.44772 18.5523 5 18 5C17.4477 5 17 5.44772 17 6C17 6.55228 17.4477 7 18 7Z" fill="currentColor"/>
<path d="M14.0438 1H9.95624C8.5932 0.999992 7.50917 0.999986 6.63458 1.07144C5.73898 1.14462 4.9753 1.29768 4.27606 1.65396C3.14709 2.2292 2.2292 3.14709 1.65396 4.27606C1.29768 4.9753 1.14462 5.73898 1.07144 6.63458C0.999986 7.50917 0.999992 8.59319 1 9.95623V14.0438C0.999992 15.4068 0.999986 16.4908 1.07144 17.3654C1.14462 18.261 1.29768 19.0247 1.65396 19.7239C2.2292 20.8529 3.14709 21.7708 4.27606 22.346C4.9753 22.7023 5.73898 22.8554 6.63458 22.9286C7.50914 23 8.59313 23 9.95613 23H14.0438C15.4068 23 16.4909 23 17.3654 22.9286C18.261 22.8554 19.0247 22.7023 19.7239 22.346C20.8529 21.7708 21.7708 20.8529 22.346 19.7239C22.7023 19.0247 22.8554 18.261 22.9286 17.3654C23 16.4909 23 15.4069 23 14.0439V9.95622C23 8.59322 23 7.50914 22.9286 6.63458C22.8554 5.73898 22.7023 4.9753 22.346 4.27606C21.7708 3.14709 20.8529 2.2292 19.7239 1.65396C19.0247 1.29768 18.261 1.14462 17.3654 1.07144C16.4908 0.999986 15.4068 0.999992 14.0438 1ZM5.18404 3.43597C5.55435 3.24729 6.02552 3.12787 6.79744 3.0648C7.58104 3.00078 8.58337 3 10 3H14C15.4166 3 16.419 3.00078 17.2026 3.0648C17.9745 3.12787 18.4457 3.24729 18.816 3.43597C19.5686 3.81947 20.1805 4.43139 20.564 5.18404C20.7527 5.55435 20.8721 6.02552 20.9352 6.79744C20.9992 7.58104 21 8.58337 21 10V14C21 15.4166 20.9992 16.419 20.9352 17.2026C20.8721 17.9745 20.7527 18.4457 20.564 18.816C20.1805 19.5686 19.5686 20.1805 18.816 20.564C18.4457 20.7527 17.9745 20.8721 17.2026 20.9352C16.419 20.9992 15.4166 21 14 21H10C8.58337 21 7.58104 20.9992 6.79744 20.9352C6.02552 20.8721 5.55435 20.7527 5.18404 20.564C4.43139 20.1805 3.81947 19.5686 3.43597 18.816C3.24729 18.4457 3.12787 17.9745 3.0648 17.2026C3.00078 16.419 3 15.4166 3 14V10C3 8.58337 3.00078 7.58104 3.0648 6.79744C3.12787 6.02552 3.24729 5.55435 3.43597 5.18404C3.81947 4.43139 4.43139 3.81947 5.18404 3.43597Z" fill="currentColor"/>
</svg>
