<svg width="24" height="24" viewBox="0 0 24 24" fill="none" xmlns="http://www.w3.org/2000/svg">
<path d="M9.53 6.152C9.22173 5.95933 8.83319 5.94913 8.51523 6.12536C8.19728 6.30158 8 6.63647 8 7V16.9846C7.99841 17.0819 8.01099 17.18 8.0385 17.2758C8.07256 17.3947 8.1281 17.5046 8.20065 17.601C8.28729 17.7165 8.39514 17.8085 8.5153 17.8749C8.63523 17.9415 8.7703 17.9841 8.91403 17.9964C9.03419 18.0068 9.15682 17.9957 9.27575 17.9615C9.37153 17.9341 9.46142 17.8927 9.54311 17.8398L17.53 12.848C17.8224 12.6653 18 12.3448 18 12C18 11.6552 17.8224 11.3347 17.53 11.152L9.53 6.152ZM10 15.1958V8.80425L15.1132 12L10 15.1958Z" fill="#056E62"/>
<path d="M12 2C9.91293 2 7.98492 2.16973 6.43398 2.37024C3.72437 2.72057 1.64092 4.82716 1.30213 7.53263C1.13587 8.8603 1 10.4249 1 12C1 13.5751 1.13587 15.1397 1.30213 16.4674C1.64092 19.1728 3.72437 21.2794 6.43398 21.6298C7.98492 21.8303 9.91293 22 12 22C14.0871 22 16.0151 21.8303 17.566 21.6298C20.2756 21.2794 22.3591 19.1728 22.6979 16.4674C22.8641 15.1397 23 13.5751 23 12C23 10.4249 22.8641 8.86031 22.6979 7.53263C22.3591 4.82717 20.2756 2.72057 17.566 2.37024C16.0151 2.16973 14.0871 2 12 2ZM6.69042 4.35374C8.17778 4.16144 10.0179 4 12 4C13.9821 4 15.8222 4.16144 17.3096 4.35374C19.1095 4.58645 20.4872 5.97472 20.7134 7.78114C20.873 9.05563 21 10.533 21 12C21 13.467 20.873 14.9444 20.7134 16.2189C20.4872 18.0253 19.1095 19.4135 17.3096 19.6463C15.8222 19.8386 13.9821 20 12 20C10.0179 20 8.17778 19.8386 6.69042 19.6463C4.89045 19.4135 3.51284 18.0253 3.28663 16.2189C3.12703 14.9444 3 13.467 3 12C3 10.533 3.12703 9.05563 3.28663 7.78114C3.51284 5.97472 4.89045 4.58645 6.69042 4.35374Z" fill="#056E62"/>
</svg>
