<svg width="24" height="24" viewBox="0 0 24 24" fill="none" xmlns="http://www.w3.org/2000/svg">
<path d="M20.8738 4.00152C20.8559 3.99853 20.8312 3.99829 20.7943 4.01419L3.08901 11.6464C2.92188 11.7227 2.99609 11.875 3.20557 11.953L6.33288 13.057C6.85367 13.2408 7.12682 13.812 6.94299 14.3328C6.75915 14.8536 6.18794 15.1268 5.66715 14.9429L2.57985 13.8531C0.631184 13.3252 0.42504 10.6169 2.29729 9.80981L20.0026 2.17757C21.6235 1.47885 23.345 2.92579 22.9416 4.64133L19.2496 20.3434C18.9102 21.7871 17.2443 22.4605 15.9977 21.6571L9.9955 17.8416C8.94605 17.1619 8.69721 15.7326 9.45431 14.738C9.46673 14.7217 9.47966 14.7057 9.49307 14.6902L13.2431 10.3465C13.604 9.92841 14.2354 9.88209 14.6535 10.243C15.0715 10.6039 15.1179 11.2354 14.757 11.6534L11.0365 15.9629C10.9964 16.0297 11.0152 16.1177 11.0809 16.1616L17.0807 19.9756C17.1651 20.0303 17.2793 19.9854 17.3027 19.8857L20.9947 4.18356C21.004 4.14408 20.9994 4.11941 20.9933 4.10198C20.9857 4.0808 20.9704 4.05694 20.946 4.03647C20.9216 4.01601 20.8956 4.00517 20.8738 4.00152Z" fill="currentColor"/>
</svg>
