<svg width="24" height="24" viewBox="0 0 24 24" fill="none" xmlns="http://www.w3.org/2000/svg">
<path d="M8.42426 7C8.15312 6.99999 7.89212 7.10944 7.73608 7.33119C7.43981 7.75221 7 8.54714 7 9.55619C7 13 11 17 14.5019 17C15.4969 17 16.2722 16.5589 16.6807 16.2626C16.8954 16.1068 17 15.851 17 15.5858V15.118C17 14.7392 16.786 14.393 16.4472 14.2236L14.7896 13.3948C14.3385 13.1692 13.7901 13.3149 13.5103 13.7345L13.4237 13.8645C13.1735 14.2397 12.698 14.4084 12.3003 14.1959C11.2861 13.6542 10.3458 12.7139 9.80403 11.6997C9.59155 11.302 9.7603 10.8264 10.1355 10.5763L10.2655 10.4897C10.6851 10.2099 10.8307 9.66147 10.6052 9.21039L9.77638 7.5528C9.60699 7.21404 9.26076 7.00005 8.88201 7.00002L8.42426 7Z" fill="currentColor"/>
<path fill-rule="evenodd" clip-rule="evenodd" d="M12 3C7.02944 3 3 7.02944 3 12C3 13.98 3.70529 15.9091 4.80549 17.4084C4.98144 17.6482 5.04153 17.9538 4.96945 18.2424L4.40453 20.5037L6.76985 19.7511C7.03537 19.6666 7.32411 19.6967 7.56647 19.8342C8.87421 20.5761 10.3861 21 12 21C16.9706 21 21 16.9706 21 12C21 7.02944 16.9706 3 12 3ZM1 12C1 5.92487 5.92487 1 12 1C18.0751 1 23 5.92487 23 12C23 18.0751 18.0751 23 12 23C10.1899 23 8.47951 22.562 6.97152 21.7857L3.3032 22.9529C2.95777 23.0628 2.5799 22.9772 2.3156 22.7291C2.0513 22.481 1.94196 22.1093 2.02982 21.7576L2.91854 18.2001C1.74583 16.4491 1 14.2695 1 12Z" fill="currentColor"/>
</svg>
