<svg width="25" height="25" viewBox="0 0 25 25" fill="none" xmlns="http://www.w3.org/2000/svg">
<path d="M9.1444 20.6935C9.39139 20.1995 9.19117 19.5989 8.69719 19.3519C8.20321 19.1049 7.60254 19.3051 7.35555 19.7991L6.35555 21.7991C6.10856 22.2931 6.30878 22.8938 6.80276 23.1407C7.29674 23.3877 7.89741 23.1875 8.1444 22.6935L9.1444 20.6935Z" fill="#056E62"/>
<path d="M15.3556 20.6935C15.1086 20.1995 15.3088 19.5989 15.8028 19.3519C16.2968 19.1049 16.8975 19.3051 17.1445 19.7991L18.1445 21.7991C18.3914 22.2931 18.1912 22.8938 17.6972 23.1407C17.2033 23.3877 16.6026 23.1875 16.3556 22.6935L15.3556 20.6935Z" fill="#056E62"/>
<path fill-rule="evenodd" clip-rule="evenodd" d="M11.25 2.24634C11.25 1.69405 11.6977 1.24634 12.25 1.24634C12.8023 1.24634 13.25 1.69405 13.25 2.24634V3.24634H18.25C19.9069 3.24634 21.25 4.58948 21.25 6.24634V14.2463C21.25 15.9032 19.9069 17.2463 18.25 17.2463H6.25C4.59315 17.2463 3.25 15.9032 3.25 14.2463V6.24634C3.25 4.58948 4.59315 3.24634 6.25 3.24634H11.25V2.24634Z" fill="#E7EAF3"/>
<path fill-rule="evenodd" clip-rule="evenodd" d="M17.8747 6.46551C18.306 6.81052 18.3759 7.43981 18.0309 7.87107L14.0309 12.8711C13.7068 13.2761 13.1269 13.3662 12.6953 13.0784L10.3774 11.5332L7.95711 13.9535C7.56658 14.344 6.93342 14.344 6.54289 13.9535C6.15237 13.563 6.15237 12.9298 6.54289 12.5393L9.54289 9.53927C9.87996 9.2022 10.4081 9.14991 10.8047 9.41432L13.0419 10.9058L16.4691 6.62168C16.8141 6.19042 17.4434 6.1205 17.8747 6.46551Z" fill="#056E62"/>
</svg>
