<svg width="25" height="25" viewBox="0 0 25 25" fill="none" xmlns="http://www.w3.org/2000/svg">
<path fill-rule="evenodd" clip-rule="evenodd" d="M16.25 15.8782V12.2466C16.25 10.5897 14.9069 9.24658 13.25 9.24658H6.41187V5.7729C6.41187 4.37765 7.54294 3.24658 8.93818 3.24658H20.7277C22.1229 3.24658 23.254 4.37765 23.254 5.7729V13.3518L23.2706 18.0334C23.2716 18.3095 23.0486 18.5342 22.7724 18.5352C22.6392 18.5356 22.5113 18.4829 22.4171 18.3887L19.9065 15.8782H16.25Z" fill="#056E62"/>
<path fill-rule="evenodd" clip-rule="evenodd" d="M2.23511 18.2466V13.2466C2.23511 12.142 3.13054 11.2466 4.23511 11.2466H12.2351C13.3397 11.2466 14.2351 12.142 14.2351 13.2466V18.2466C14.2351 19.3512 13.3397 20.2466 12.2351 20.2466H4.35084L3.10699 21.4371C2.90749 21.628 2.59099 21.6211 2.40005 21.4216C2.31098 21.3286 2.26126 21.2047 2.26126 21.0759V18.5708C2.24405 18.4653 2.23511 18.357 2.23511 18.2466ZM6.75005 14.2466C6.47391 14.2466 6.25005 14.4704 6.25005 14.7466C6.25005 15.0227 6.47391 15.2466 6.75005 15.2466H11.7501C12.0262 15.2466 12.2501 15.0227 12.2501 14.7466C12.2501 14.4704 12.0262 14.2466 11.7501 14.2466H6.75005ZM9.75005 16.2466C9.47391 16.2466 9.25005 16.4704 9.25005 16.7466C9.25005 17.0227 9.47391 17.2466 9.75005 17.2466H11.7501C12.0262 17.2466 12.2501 17.0227 12.2501 16.7466C12.2501 16.4704 12.0262 16.2466 11.7501 16.2466H9.75005Z" fill="#CFD5F0"/>
</svg>
