<svg width="25" height="25" viewBox="0 0 25 25" fill="none" xmlns="http://www.w3.org/2000/svg">
<g clip-path="url(#clip0_234_461)">
<path d="M4.3952 13.661L13.7515 0.70623C14.3703 -0.150674 15.7223 0.413481 15.5485 1.45612L14.2501 9.24653H19.2944C20.1101 9.24653 20.5827 10.1707 20.105 10.832L10.7488 23.7868C10.1299 24.6437 8.77795 24.0796 8.95172 23.0369L10.2501 15.2465H5.20588C4.39011 15.2465 3.91757 14.3224 4.3952 13.661Z" fill="#E7EAF3"/>
<path d="M4.39508 13.661L13.7513 0.70623C14.3702 -0.150674 15.7222 0.413481 15.5484 1.45612L14.25 9.24653L10.25 15.2465H5.20576C4.38999 15.2465 3.91745 14.3224 4.39508 13.661Z" fill="#056E62"/>
</g>
<defs>
<clipPath id="clip0_234_461">
<rect width="24" height="24" fill="white" transform="translate(0.25 0.24646)"/>
</clipPath>
</defs>
</svg>
