<svg width="24" height="25" viewBox="0 0 24 25" fill="none" xmlns="http://www.w3.org/2000/svg">
<g clip-path="url(#clip0_30_1485)">
<path d="M21.3902 20.2576L19.4852 22.1626C19.4852 22.1626 14.5355 24.2839 7.46441 17.2128C0.39334 10.1418 2.51466 5.19201 2.51466 5.19201L4.41959 3.28707C5.28021 2.42645 6.70355 2.52761 7.43381 3.50129L9.25208 5.92565C9.84926 6.72189 9.77008 7.83608 9.06629 8.53987L7.46441 10.1418C7.46441 10.1418 7.46441 11.556 10.2928 14.3844C13.1213 17.2128 14.5355 17.2128 14.5355 17.2128L16.1374 15.6109C16.8411 14.9072 17.9553 14.828 18.7516 15.4251L21.1759 17.2434C22.1496 17.9737 22.2508 19.397 21.3902 20.2576Z" fill="#CFD5F0"/>
<path d="M4.41959 3.287L3.92887 3.77772L8.17151 9.43457L9.06629 8.53979C9.77007 7.83601 9.84926 6.72182 9.25208 5.92558L7.4338 3.50121C6.70354 2.52753 5.28021 2.42638 4.41959 3.287Z" fill="#008574"/>
<path d="M21.3901 20.2578L20.8994 20.7485L15.2426 16.5059L16.1373 15.6111C16.8411 14.9073 17.9553 14.8281 18.7515 15.4253L21.1759 17.2436C22.1496 17.9738 22.2507 19.3972 21.3901 20.2578Z" fill="#008574"/>
</g>
<defs>
<clipPath id="clip0_30_1485">
<rect width="24" height="24" fill="white" transform="translate(0 0.677246)"/>
</clipPath>
</defs>
</svg>
