<svg width="25" height="25" viewBox="0 0 25 25" fill="none" xmlns="http://www.w3.org/2000/svg">
<g clip-path="url(#clip0_234_443)">
<path d="M2.25 15.2465C2.25 13.5896 3.59315 12.2465 5.25 12.2465H7.25V22.2465H5.25C3.59315 22.2465 2.25 20.9033 2.25 19.2465V15.2465Z" fill="#056E62"/>
<path d="M22.6288 12.7341C22.9444 11.4721 21.9902 10.2494 20.6893 10.2489L14.75 10.2465L15.299 6.95264C15.5645 5.3594 14.719 3.78822 13.2429 3.13222C12.3057 2.71566 11.25 3.40172 11.25 4.42738V6.19412C11.25 6.87533 11.0182 7.53626 10.5926 8.0682L7.25 12.2465V22.2465H17.9078C19.2844 22.2465 20.4843 21.3097 20.8182 19.9743L22.6288 12.7341Z" fill="#E7EAF3"/>
</g>
<defs>
<clipPath id="clip0_234_443">
<rect width="24" height="24" fill="white" transform="translate(0.25 0.24646)"/>
</clipPath>
</defs>
</svg>
