<svg width="59" height="60" viewBox="0 0 59 60" fill="none" xmlns="http://www.w3.org/2000/svg">
<path fill-rule="evenodd" clip-rule="evenodd" d="M40.253 49.9898L54.6309 28.423C55.1957 27.5757 54.9668 26.431 54.1195 25.8661C53.8166 25.6642 53.4608 25.5565 53.0968 25.5565H41.7918V11.9793C41.7918 10.961 40.9663 10.1355 39.9481 10.1355C39.3316 10.1355 38.7559 10.4436 38.414 10.9565L24.0361 32.5233C23.4712 33.3706 23.7002 34.5153 24.5474 35.0802C24.8503 35.2821 25.2062 35.3898 25.5702 35.3898H36.8751V48.9671C36.8751 49.9853 37.7006 50.8108 38.7189 50.8108C39.3354 50.8108 39.911 50.5027 40.253 49.9898Z" fill="#008574"/>
<path fill-rule="evenodd" clip-rule="evenodd" d="M11.0625 13.2651H23.3542C25.3908 13.2651 27.0418 14.9161 27.0418 16.9526C27.0418 18.9892 25.3908 20.6402 23.3542 20.6402H11.0625C9.02598 20.6402 7.37503 18.9892 7.37503 16.9526C7.37503 14.9161 9.02598 13.2651 11.0625 13.2651ZM11.0625 42.7652H23.3542C25.3908 42.7652 27.0418 44.4162 27.0418 46.4527C27.0418 48.4893 25.3908 50.1403 23.3542 50.1403H11.0625C9.02598 50.1403 7.37503 48.4893 7.37503 46.4527C7.37503 44.4162 9.02598 42.7652 11.0625 42.7652ZM6.14586 28.0152H15.9792C18.0158 28.0152 19.6667 29.6661 19.6667 31.7027C19.6667 33.7393 18.0158 35.3902 15.9792 35.3902H6.14586C4.1093 35.3902 2.45834 33.7393 2.45834 31.7027C2.45834 29.6661 4.1093 28.0152 6.14586 28.0152Z" fill="#E7EAF3"/>
</svg>
